<svg version="1.1" viewBox="0 0 32 32" xmlns="http://www.w3.org/2000/svg">
 <path d="m13.1 6.03 1.41-2.95h2.88l1.39 2.82 2.21 1.02 3.09-1.09 2.04 2.04-0.994 2.98 0.815 2.28 2.95 1.41v2.88l-2.89 1.44-0.937 2.23 1.06 3.02-2.04 2.04-3.06-1.02-2.23 0.94-1.39 2.85h-2.88l-1.44-2.89-2.23-0.937-3.02 1.06-2.04-2.04 1.02-2.97-0.936-2.32-2.85-1.39v-2.88l2.82-1.39 0.975-2.29-1.04-3.01 2.04-2.04 3.06 1.02z" fill="none" stroke="#000000" stroke-linejoin="round" stroke-width="1.7"/>
 <circle cx="16" cy="16" r="3.2" fill="none" stroke="#000000" stroke-width="1.5"/>
</svg>
