<svg version="1.1" viewBox="0 0 32 32" xmlns="http://www.w3.org/2000/svg">
 <path d="m4 28s4-7 8-7 6 2 9 3c3.79 1.26 7-4 7-4s-4 7-8 7-6-2-9-3c-3.79-1.26-7 4-7 4z" fill="#000000"/>
 <path d="m4 25s2.46-11.1 5.46-15.7c1.07-1.67 2.56-3.17 4.31-4.12 1.52-0.826 3.19-1.2 5.04-1.2 5 0 8.2 4.04 8.2 7.04 0 1.7-0.785 3.68-2 5-1.01 1.1-2.53 1.78-4 2-2.01 0.301-4.85 0.673-6-1-0.475-0.694 0.0177-1.79 0.514-2.47 1.01-1.39 4.49-2.53 4.49-2.53s-2.3 1.84-2 3c0.284 1.09 1.88 1.57 3 1.53 1.34-0.0416 2.97-0.799 3.46-2.04 0.634-1.61-0.315-3.68-1.46-4.97-1.41-1.6-3.74-2.57-5.88-2.55-2.15 0.0286-4.32 1.21-5.84 2.72-4.01 3.98-7.28 15.3-7.28 15.3z" fill="#000000"/>
</svg>
